<svg id="Layer_1" data-name="Layer 1" xmlns="http://www.w3.org/2000/svg" viewBox="0 0 398.96 425.96"><defs><style>.cls-1{fill:#fff;}.cls-2{fill:#ff671d;}.cls-3{fill:#e65300;fill-rule:evenodd;}</style></defs><polygon class="cls-1" points="199.48 0 0 68.78 33.74 334.76 199.48 425.96 365.22 334.76 398.96 68.78 199.48 0"/><path class="cls-2" d="M891.92,264.69c-34.22-12.81-67.36-25.47-101.66-38.06l102.6-35.39v73.81ZM713,282.32c.05,0,107.48,38.85,161.92,59.51l17.91,6.79h0V305.49l-.94-.37-1.09-.41c-49.49-18.75-149.2-55.38-157.19-58.32l-.49-.07-23.65,8.15L713,282.32ZM829.26,410.69l62.66-33.47.94-.52v-5.88h0l-19.65,10.5-.44-.16c-52.46-20-101.67-38.22-154.47-57.32L735.7,461c32.3-17.68,61-33.17,93.45-50.53Zm63.6,84c-27,14.73-53.1,29.16-79.93,44.1h0l79.93,44V494.7ZM777.48,519.3,778,519q56.51-31.47,113.38-62.29l1.45-.79h0V415.4l-.94.51-17.57,9.4q-44,23.54-87.86,47.4c-16.24,8.86-29.9,16.37-46.09,25.32h0l.12.93,37,20.35h0Z" transform="translate(-693.38 -174.04)"/><path class="cls-3" d="M922,360.87,892.86,376.7v-5.88l23.81-13q-11.37-4.42-22.74-8.82l-1.07-.42V305.49q38.46,14.83,76.75,30Q945.82,348.21,922,360.91ZM892.86,191.24v73.81l.11,0q61.26,23.37,122.21,47.53l1.86.74v2.35q-1.8,16.67-3.66,33.32v1.65l-1.58.83q-59.4,31.56-118.46,63.63l-.47.26v40.51q34.83-19.25,69.76-38.29Q944.8,410.23,927,402.87l43-23.41,37.15,15.36,1.83.75v2.18l0,.16q-1.85,16.65-3.66,33.31v1.62l-1.54.84Q948.89,463.56,894.3,493.9l-1.44.8v88.09L1045.21,499l31-244.49Z" transform="translate(-693.38 -174.04)"/></svg>